<svg width="24" height="24" viewBox="0 0 24 24" fill="none" xmlns="http://www.w3.org/2000/svg">
<path d="M12.7941 16.9184L18.8813 10.5615C18.9823 10.4571 19.0624 10.3328 19.1171 10.196C19.1718 10.0591 19.2 9.91231 19.2 9.76404C19.2 9.61578 19.1718 9.46898 19.1171 9.33211C19.0624 9.19525 18.9823 9.07103 18.8813 8.96662C18.6795 8.75743 18.4064 8.64001 18.1218 8.64001C17.8371 8.64001 17.5641 8.75743 17.3622 8.96662L11.9753 14.5262L6.64231 8.96661C6.44045 8.75743 6.16739 8.64001 5.88276 8.64001C5.59813 8.64001 5.32507 8.75743 5.12321 8.96661C5.02141 9.07063 4.94042 9.19468 4.88494 9.33156C4.82946 9.46844 4.80059 9.61544 4.8 9.76404C4.80059 9.91264 4.82946 10.0596 4.88494 10.1965C4.94042 10.3334 5.02141 10.4575 5.12321 10.5615L11.2104 16.9184C11.3113 17.0324 11.4337 17.1234 11.57 17.1857C11.7063 17.2479 11.8535 17.28 12.0023 17.28C12.151 17.28 12.2982 17.2479 12.4345 17.1857C12.5708 17.1234 12.6932 17.0324 12.7941 16.9184Z" fill="white"/>
</svg>
