<svg width="24" height="24" viewBox="0 0 24 24" fill="none" xmlns="http://www.w3.org/2000/svg">
<path d="M11.2059 7.08156L5.11874 13.4385C5.01775 13.5429 4.9376 13.6672 4.88291 13.804C4.82821 13.9409 4.80005 14.0877 4.80005 14.236C4.80005 14.3842 4.82821 14.531 4.88291 14.6679C4.9376 14.8048 5.01775 14.929 5.11874 15.0334C5.3206 15.2426 5.59366 15.36 5.87829 15.36C6.16291 15.36 6.43598 15.2426 6.63784 15.0334L12.0247 9.47384L17.3577 15.0334C17.5596 15.2426 17.8327 15.36 18.1173 15.36C18.4019 15.36 18.675 15.2426 18.8768 15.0334C18.9786 14.9294 19.0596 14.8053 19.1151 14.6684C19.1706 14.5316 19.1995 14.3846 19.2001 14.236C19.1995 14.0874 19.1706 13.9404 19.1151 13.8035C19.0596 13.6666 18.9786 13.5425 18.8768 13.4385L12.7897 7.08156C12.6888 6.96755 12.5663 6.87657 12.43 6.81434C12.2937 6.75211 12.1466 6.71998 11.9978 6.71998C11.849 6.71998 11.7018 6.75211 11.5655 6.81434C11.4292 6.87657 11.3068 6.96755 11.2059 7.08156Z" fill="white"/>
</svg>
