<svg width="15" height="15" viewBox="0 0 15 15" fill="none" xmlns="http://www.w3.org/2000/svg">
<g clip-path="url(#clip0_1_1768)">
<path d="M14.7481 6.70571L8.01807 0.573359C7.72267 0.304151 7.27722 0.30418 6.98193 0.57333L0.251895 6.70574C0.0152649 6.92136 -0.062899 7.25359 0.0527063 7.55209C0.168341 7.8506 0.449883 8.04346 0.77001 8.04346H1.84491V14.1876C1.84491 14.4312 2.04243 14.6287 2.28603 14.6287H5.97491C6.21852 14.6287 6.41604 14.4313 6.41604 14.1876V10.4571H8.58406V14.1876C8.58406 14.4313 8.78158 14.6288 9.02518 14.6288H12.7139C12.9575 14.6288 13.155 14.4313 13.155 14.1876V8.04346H14.2301C14.5502 8.04346 14.8318 7.85057 14.9474 7.55209C15.0629 7.25356 14.9847 6.92136 14.7481 6.70571Z" fill="#2874A6"/>
<path d="M13.0397 1.2522H10.0773L13.4809 4.347V1.69329C13.4809 1.44969 13.2834 1.2522 13.0397 1.2522Z" fill="#2874A6"/>
</g>
<defs>
<clipPath id="clip0_1_1768">
<rect width="15" height="15" fill="white"/>
</clipPath>
</defs>
</svg>
