<svg width="15" height="15" viewBox="0 0 15 15" fill="none" xmlns="http://www.w3.org/2000/svg">
<path d="M9.94312 7.57663L15 10.7735V4.24475L9.94312 7.57663Z" fill="#2874A6"/>
<path d="M0 4.24475V10.7735L5.05688 7.57663L0 4.24475Z" fill="#2874A6"/>
<path d="M14.0624 2.34375H0.937451C0.469639 2.34375 0.0983886 2.6925 0.0280762 3.14156L7.49995 8.06437L14.9718 3.14156C14.9015 2.6925 14.5303 2.34375 14.0624 2.34375Z" fill="#2874A6"/>
<path d="M9.08441 8.14339L7.75784 9.01714C7.67909 9.06871 7.59003 9.09402 7.50003 9.09402C7.41003 9.09402 7.32097 9.06871 7.24222 9.01714L5.91566 8.14246L0.0300293 11.8653C0.102217 12.3106 0.471592 12.6565 0.93753 12.6565H14.0625C14.5285 12.6565 14.8978 12.3106 14.97 11.8653L9.08441 8.14339Z" fill="#2874A6"/>
</svg>
