<svg width="21" height="21" viewBox="0 0 21 21" fill="none" xmlns="http://www.w3.org/2000/svg">
<path d="M18.5334 15.5832L4.68623 1.73604C3.82511 0.874916 2.42395 0.874883 1.56173 1.7371C0.700605 2.59822 0.700605 3.99942 1.56173 4.86055L15.4088 18.7077C16.27 19.5688 17.6712 19.5688 18.5323 18.7077C19.3945 17.8454 19.3945 16.4443 18.5334 15.5832Z" fill="#1B4F72"/>
<path d="M1.60935 15.4088L15.4565 1.56172C16.3176 0.700599 17.7188 0.700566 18.581 1.56278C19.4421 2.42391 19.4421 3.82511 18.581 4.68623L4.73386 18.5333C3.87273 19.3945 2.47153 19.3945 1.61041 18.5333C0.748192 17.6711 0.748225 16.27 1.60935 15.4088Z" fill="#1B4F72"/>
</svg>
