<svg width="99" height="115" viewBox="0 0 99 115" fill="none" xmlns="http://www.w3.org/2000/svg">
<g filter="url(#filter0_d_1_600)">
<path d="M78.9867 18.0785C78.9867 18.0722 78.9874 18.0658 78.9874 18.0594C78.9874 10.3026 72.6994 4.01465 64.9426 4.01465C57.1859 4.01465 50.898 10.3025 50.898 18.0594C50.898 25.8163 57.1866 32.1041 64.9428 32.1041C66.5369 32.1041 68.0629 31.8262 69.4907 31.3366C66.3309 49.4636 52.1952 61.1537 65.2988 51.5325C79.8289 40.8637 79.0029 18.4879 78.9867 18.0785Z" fill="white"/>
<path d="M34.0447 32.104C35.6389 32.104 37.1648 31.8261 38.5934 31.3365C35.4327 49.4635 21.2971 61.1535 34.4008 51.5324C48.9308 40.8637 48.105 18.4879 48.0887 18.0785C48.0887 18.0722 48.0893 18.0658 48.0893 18.0594C48.0893 10.3026 41.8015 4.01465 34.0447 4.01465C26.2878 4.01465 20 10.3025 20 18.0594C20 25.8163 26.2885 32.104 34.0447 32.104Z" fill="white"/>
</g>
<defs>
<filter id="filter0_d_1_600" x="0" y="0" width="99" height="119" filterUnits="userSpaceOnUse" color-interpolation-filters="sRGB">
<feFlood flood-opacity="0" result="BackgroundImageFix"/>
<feColorMatrix in="SourceAlpha" type="matrix" values="0 0 0 0 0 0 0 0 0 0 0 0 0 0 0 0 0 0 127 0" result="hardAlpha"/>
<feOffset dy="40"/>
<feGaussianBlur stdDeviation="10"/>
<feColorMatrix type="matrix" values="0 0 0 0 0.262778 0 0 0 0 0.545819 0 0 0 0 0.733333 0 0 0 1 0"/>
<feBlend mode="normal" in2="BackgroundImageFix" result="effect1_dropShadow_1_600"/>
<feBlend mode="normal" in="SourceGraphic" in2="effect1_dropShadow_1_600" result="shape"/>
</filter>
</defs>
</svg>
